<svg width="1654" height="2456" viewBox="0 0 1654 2456" fill="none" xmlns="http://www.w3.org/2000/svg">
<g clip-path="url(#clip0_289_1069)">
<path d="M924.143 1226.34L920.249 1008.87C919.621 974.399 909.826 940.489 890.234 912.169C881.317 899.233 869.7 886.297 854.692 874.868C854.504 874.68 854.253 874.491 854.001 874.303C827.314 854.208 794.284 844.412 760.878 845.04L539.968 848.996L540.093 849.122H539.842V1070.04C539.842 1103.44 550.266 1136.29 570.8 1162.6C570.988 1162.85 571.176 1163.1 571.365 1163.35C583.107 1178.11 596.231 1189.47 609.292 1198.2C637.927 1217.29 672.087 1226.46 706.498 1226.46H924.143V1226.34Z" fill="url(#paint0_linear_289_1069)"/>
<path d="M977.832 1157.26L981.725 939.8C982.353 905.325 992.149 871.415 1011.74 843.094C1020.66 830.158 1032.27 817.223 1047.28 805.794C1047.47 805.605 1047.72 805.417 1047.97 805.229C1074.66 785.134 1107.69 775.338 1141.1 775.966L1362.01 779.922L1361.88 780.048H1362.13V1000.96C1362.13 1034.37 1351.71 1067.21 1331.17 1093.52C1330.99 1093.77 1330.8 1094.03 1330.61 1094.28C1318.87 1109.03 1305.74 1120.4 1292.68 1129.13C1264.05 1148.22 1229.89 1157.39 1195.48 1157.39H977.957L977.832 1157.45V1157.39V1157.26Z" fill="url(#paint1_linear_289_1069)"/>
<path d="M1009.86 780.777L1005.96 563.315C1005.34 528.841 995.54 494.931 975.948 466.61C967.031 453.674 955.414 440.738 940.406 429.309C940.218 429.121 939.967 428.933 939.716 428.744C913.028 408.65 879.998 398.854 846.592 399.481L625.682 403.438L625.807 403.563H625.556V624.478C625.556 657.886 635.98 690.728 656.514 717.039C656.702 717.29 656.89 717.541 657.079 717.793C668.821 732.55 681.945 743.916 695.007 752.644C723.641 771.734 757.801 780.902 792.212 780.902H1009.86V780.777Z" fill="url(#paint2_linear_289_1069)"/>
<path d="M1066.09 709.591L1069.98 492.13C1070.61 457.655 1080.41 423.745 1100 395.425C1108.92 382.489 1120.53 369.553 1135.54 358.124C1135.73 357.935 1135.98 357.747 1136.23 357.559C1162.92 337.464 1195.95 327.668 1229.36 328.296L1450.27 332.252L1450.14 332.378H1450.39V553.293C1450.39 586.7 1439.97 619.542 1419.43 645.853C1419.25 646.105 1419.06 646.356 1418.87 646.607C1407.13 661.364 1394 672.73 1380.94 681.459C1352.31 700.548 1318.15 709.717 1283.74 709.717H1066.22L1066.09 709.779V709.717V709.591Z" fill="url(#paint3_linear_289_1069)"/>
<path d="M478 1147.93L474.809 968.919C474.288 940.524 466.213 912.648 450.064 889.32C442.705 878.664 433.133 868.007 420.76 858.586C420.63 858.456 420.37 858.261 420.174 858.131C398.164 841.561 370.879 833.504 343.334 834.024L161.065 837.273L161.195 837.403H161V1019.21C161 1046.7 169.596 1073.73 186.527 1095.43C186.657 1095.63 186.852 1095.82 186.983 1096.08C196.685 1108.23 207.495 1117.59 218.24 1124.74C241.878 1140.46 270.009 1148 298.401 1148H477.935V1147.87L478 1147.93Z" fill="url(#paint4_linear_289_1069)"/>
<path d="M565.525 780.738L562.699 622.87C562.26 597.814 555.101 573.198 540.909 552.664C534.442 543.245 526.027 533.888 515.101 525.599C514.975 525.474 514.787 525.348 514.599 525.16C495.195 510.591 471.271 503.433 446.969 503.935L286.593 506.823L286.718 506.949H286.53V667.329C286.53 691.568 294.128 715.431 309.01 734.52C309.136 734.709 309.262 734.897 309.45 735.086C317.99 745.824 327.472 754.05 336.954 760.392C357.739 774.27 382.542 780.926 407.535 780.926H565.525V780.738Z" fill="url(#paint5_linear_289_1069)"/>
<path d="M557.676 443.068L554.85 285.2C554.41 260.144 547.252 235.529 533.06 214.994C526.592 205.575 518.178 196.218 507.252 187.929C507.126 187.804 506.938 187.678 506.749 187.49C487.346 172.921 463.421 165.763 439.12 166.265L278.744 169.154L278.869 169.279H278.681V329.659C278.681 353.898 286.279 377.761 301.161 396.851C301.287 397.039 301.412 397.227 301.601 397.416C310.141 408.154 319.623 416.38 329.105 422.722C349.889 436.6 374.693 443.256 399.685 443.256H557.676V443.068Z" fill="url(#paint6_linear_289_1069)"/>
<path d="M820.344 1550.49L817.518 1392.62C817.079 1367.56 809.92 1342.95 795.729 1322.41C789.261 1312.99 780.846 1303.64 769.92 1295.35C769.794 1295.22 769.606 1295.1 769.418 1294.91C750.014 1280.34 726.09 1273.18 701.788 1273.68L541.412 1276.57L541.537 1276.7H541.349V1437.08C541.349 1461.32 548.947 1485.18 563.829 1504.27C563.955 1504.46 564.081 1504.65 564.269 1504.84C572.809 1515.57 582.291 1523.8 591.773 1530.14C612.558 1544.02 637.361 1550.68 662.354 1550.68H820.344V1550.49Z" fill="url(#paint7_linear_289_1069)"/>
<path d="M948.507 1500.5L951.333 1342.63C951.772 1317.58 958.931 1292.96 973.122 1272.43C979.59 1263.01 988.004 1253.65 998.931 1245.36C999.056 1245.24 999.245 1245.11 999.433 1244.92C1018.84 1230.35 1042.76 1223.2 1067.06 1223.7L1227.44 1226.59L1227.31 1226.71H1227.5V1387.09C1227.5 1411.33 1219.9 1435.19 1205.02 1454.28C1204.9 1454.47 1204.77 1454.66 1204.58 1454.85C1196.04 1465.59 1186.56 1473.81 1177.08 1480.16C1156.29 1494.03 1131.49 1500.69 1106.5 1500.69H948.57H948.507V1500.5Z" fill="url(#paint8_linear_289_1069)"/>
<path d="M791.301 344.45L793.687 210.13C794.064 188.842 800.155 167.868 812.212 150.411C817.738 142.436 824.896 134.461 834.19 127.365C834.315 127.24 834.441 127.114 834.629 126.988C851.081 114.555 871.489 108.527 892.149 108.903L1028.6 111.352H1028.54H1028.73V247.807C1028.73 268.467 1022.26 288.75 1009.64 304.951C1009.51 305.077 1009.39 305.265 1009.26 305.391C1002.04 314.496 993.875 321.529 985.838 326.93C968.13 338.735 947.031 344.387 925.807 344.387H791.49H791.427L791.301 344.45Z" fill="url(#paint9_linear_289_1069)"/>
<path d="M1290.99 1389.73L1293.37 1258.05C1293.75 1237.2 1299.71 1216.6 1311.52 1199.46C1316.92 1191.61 1323.95 1183.76 1333.06 1176.85C1333.18 1176.73 1333.31 1176.6 1333.5 1176.54C1349.64 1164.36 1369.67 1158.45 1389.89 1158.83L1523.7 1161.22H1523.64H1523.83V1295.04C1523.83 1315.26 1517.49 1335.16 1505.05 1351.11C1504.93 1351.24 1504.8 1351.43 1504.74 1351.55C1497.64 1360.47 1489.67 1367.38 1481.76 1372.65C1464.42 1384.2 1443.7 1389.79 1422.92 1389.79H1291.17H1291.11L1290.99 1389.73Z" fill="#0640F7"/>
<path d="M475.98 1443.48L473.594 1311.8C473.217 1290.95 467.252 1270.36 455.447 1253.21C450.046 1245.36 443.013 1237.51 433.908 1230.61C433.783 1230.48 433.657 1230.35 433.469 1230.29C417.33 1218.11 397.299 1212.21 377.079 1212.58L243.265 1214.97H243.328H243.139V1348.79C243.139 1369.01 249.481 1388.91 261.915 1404.86C262.04 1404.99 262.166 1405.18 262.229 1405.3C269.324 1414.22 277.299 1421.13 285.211 1426.4C302.543 1437.96 323.265 1443.55 344.05 1443.55H475.855L475.98 1443.48Z" fill="#0640F7"/>
<path d="M1421.28 921.84L1423.67 790.158C1424.05 769.31 1430.01 748.713 1441.82 731.57C1447.22 723.72 1454.25 715.871 1463.36 708.963C1463.48 708.838 1463.61 708.712 1463.8 708.649C1479.93 696.467 1499.97 690.564 1520.19 690.941L1654 693.327H1653.94H1654.13V827.145C1654.13 847.365 1647.78 867.271 1635.35 883.221C1635.22 883.347 1635.1 883.535 1635.04 883.661C1627.94 892.578 1619.97 899.485 1612.05 904.76C1594.72 916.314 1574 921.903 1553.22 921.903H1421.47H1421.41L1421.28 921.84Z" fill="#0640F7"/>
<path d="M232.715 780.801L230.329 649.119C229.952 628.271 223.987 607.674 212.182 590.531C206.781 582.681 199.748 574.832 190.643 567.924C190.518 567.798 190.392 567.673 190.204 567.61C174.066 555.428 154.034 549.525 133.814 549.902L0.0627942 552.225H0.125588L0 552.288V686.105C0 706.326 6.34222 726.232 18.7755 742.182C18.9011 742.308 19.0267 742.496 19.0894 742.622C26.1852 751.539 34.1601 758.446 42.0721 763.721C59.4033 775.275 80.1254 780.864 100.91 780.864H232.715V780.801Z" fill="#0640F7"/>
<path d="M1092.62 274.307L1095.32 123.598C1095.76 99.7353 1102.54 76.187 1116.11 56.5947C1122.26 47.615 1130.36 38.6352 1140.72 30.7229C1140.85 30.5973 1141.04 30.4717 1141.22 30.3462C1159.75 16.4055 1182.67 9.5608 1205.78 10.0004L1358.87 12.7634L1358.74 12.889H1358.93V165.985C1358.93 189.156 1351.71 211.888 1337.46 230.162C1337.33 230.35 1337.2 230.539 1337.08 230.664C1328.92 240.9 1319.87 248.749 1310.77 254.841C1290.93 268.09 1267.25 274.433 1243.39 274.433H1092.62H1092.56L1092.62 274.307Z" fill="url(#paint10_linear_289_1069)"/>
<path d="M837.97 1568.2V2404.13H455.553V2381.34H380.954V2456H455.553V2430.69H837.97H844.25H864.595V1568.2H837.97Z" fill="url(#paint11_linear_289_1069)"/>
<path d="M1350.56 2381.34V2404.13H945.474V1568.2H918.912V2430.69H939.194H945.474H1350.56V2456H1425.22V2381.34H1350.56Z" fill="url(#paint12_linear_289_1069)"/>
<path d="M772.539 1843.81L692.036 1736.8V1673.63H675.898V1743.46H676.024L675.835 1743.58L756.903 1851.34V2336.94H531.283V2323.5H487.264V2367.52H531.283V2352.64H756.903H760.608H772.601V1843.81H772.539Z" fill="url(#paint13_linear_289_1069)"/>
<path d="M1252.22 2323.5V2336.94H1026.6V1851.34L1107.67 1743.58L1107.48 1743.46H1107.61V1673.63H1091.47V1736.8L1010.97 1843.81H1010.91V2352.64H1022.9H1026.6H1252.22V2367.52H1296.24V2323.5H1252.22Z" fill="#0640F7"/>
</g>
<defs>
<linearGradient id="paint0_linear_289_1069" x1="539.842" y1="1035.75" x2="924.205" y2="1035.75" gradientUnits="userSpaceOnUse">
<stop stop-color="#FB7B2E"/>
<stop offset="0.99" stop-color="#BF0060"/>
</linearGradient>
<linearGradient id="paint1_linear_289_1069" x1="977.769" y1="966.739" x2="1362.13" y2="966.739" gradientUnits="userSpaceOnUse">
<stop stop-color="#BF0060"/>
<stop offset="1" stop-color="#0640F7"/>
</linearGradient>
<linearGradient id="paint2_linear_289_1069" x1="625.556" y1="590.192" x2="1009.92" y2="590.192" gradientUnits="userSpaceOnUse">
<stop stop-color="#FB7B2E"/>
<stop offset="0.99" stop-color="#BF0060"/>
</linearGradient>
<linearGradient id="paint3_linear_289_1069" x1="1066.03" y1="519.006" x2="1450.39" y2="519.006" gradientUnits="userSpaceOnUse">
<stop stop-color="#BF0060"/>
<stop offset="1" stop-color="#0640F7"/>
</linearGradient>
<linearGradient id="paint4_linear_289_1069" x1="160.935" y1="991.077" x2="478.065" y2="991.077" gradientUnits="userSpaceOnUse">
<stop stop-color="#5763E8"/>
<stop offset="0.05" stop-color="#0640F7"/>
<stop offset="0.99" stop-color="#FF6321"/>
</linearGradient>
<linearGradient id="paint5_linear_289_1069" x1="286.53" y1="642.399" x2="565.525" y2="642.399" gradientUnits="userSpaceOnUse">
<stop stop-color="#5763E8"/>
<stop offset="0.05" stop-color="#0640F7"/>
<stop offset="0.99" stop-color="#FF6321"/>
</linearGradient>
<linearGradient id="paint6_linear_289_1069" x1="278.681" y1="304.729" x2="557.738" y2="304.729" gradientUnits="userSpaceOnUse">
<stop stop-color="#5763E8"/>
<stop offset="0.05" stop-color="#0640F7"/>
<stop offset="0.99" stop-color="#FF6321"/>
</linearGradient>
<linearGradient id="paint7_linear_289_1069" x1="541.349" y1="1412.09" x2="820.407" y2="1412.09" gradientUnits="userSpaceOnUse">
<stop stop-color="#FB7B2E"/>
<stop offset="0.99" stop-color="#BF0060"/>
</linearGradient>
<linearGradient id="paint8_linear_289_1069" x1="948.444" y1="1362.1" x2="1227.44" y2="1362.1" gradientUnits="userSpaceOnUse">
<stop stop-color="#BF0060"/>
<stop offset="1" stop-color="#0640F7"/>
</linearGradient>
<linearGradient id="paint9_linear_289_1069" x1="791.238" y1="226.708" x2="1028.6" y2="226.708" gradientUnits="userSpaceOnUse">
<stop stop-color="#FB7B2E"/>
<stop offset="1" stop-color="#BF0060"/>
</linearGradient>
<linearGradient id="paint10_linear_289_1069" x1="1092.62" y1="142.185" x2="1358.99" y2="142.185" gradientUnits="userSpaceOnUse">
<stop stop-color="#BF0060"/>
<stop offset="1" stop-color="#0640F7"/>
</linearGradient>
<linearGradient id="paint11_linear_289_1069" x1="380.954" y1="2012.1" x2="864.595" y2="2012.1" gradientUnits="userSpaceOnUse">
<stop stop-color="#FB7B2E"/>
<stop offset="0.99" stop-color="#BF0060"/>
</linearGradient>
<linearGradient id="paint12_linear_289_1069" x1="918.912" y1="2012.1" x2="1425.22" y2="2012.1" gradientUnits="userSpaceOnUse">
<stop stop-color="#BF0060"/>
<stop offset="1" stop-color="#0640F7"/>
</linearGradient>
<linearGradient id="paint13_linear_289_1069" x1="487.264" y1="2020.57" x2="772.601" y2="2020.57" gradientUnits="userSpaceOnUse">
<stop stop-color="#FF6321"/>
</linearGradient>
<clipPath id="clip0_289_1069">
<rect width="1654" height="2456" fill="white"/>
</clipPath>
</defs>
</svg>
