<svg width="3463" height="5241" viewBox="0 0 3463 5241" fill="none" xmlns="http://www.w3.org/2000/svg">
<g clip-path="url(#clip0_289_1039)">
<path d="M1881.37 2647.85L1872.28 2139.96C1870.81 2059.45 1847.93 1980.25 1802.17 1914.1C1781.35 1883.89 1754.21 1853.68 1719.16 1826.99C1718.72 1826.55 1718.13 1826.11 1717.55 1825.67C1655.22 1778.74 1578.07 1755.86 1500.05 1757.32L984.087 1766.56L984.38 1766.86H983.794V2282.81C983.794 2360.83 1008.14 2437.54 1056.1 2498.99C1056.54 2499.57 1056.98 2500.16 1057.42 2500.75C1084.84 2535.21 1115.5 2561.76 1146 2582.14C1212.88 2626.73 1292.67 2648.14 1373.04 2648.14H1881.37V2647.85Z" fill="url(#paint0_linear_289_1039)"/>
<path d="M2027 2511.59L2036.09 2003.7C2037.56 1923.19 2060.44 1843.99 2106.2 1777.85C2127.02 1747.63 2154.16 1717.42 2189.21 1690.73C2189.65 1690.29 2190.24 1689.85 2190.82 1689.41C2253.15 1642.48 2330.3 1619.6 2408.32 1621.07L2924.28 1630.31L2923.99 1630.6H2924.58V2146.55C2924.58 2224.58 2900.23 2301.28 2852.27 2362.73C2851.83 2363.32 2851.39 2363.9 2850.95 2364.49C2823.53 2398.96 2792.87 2425.5 2762.37 2445.89C2695.49 2490.47 2615.7 2511.88 2535.33 2511.88H2027.29L2027 2512.03V2511.88V2511.59Z" fill="url(#paint1_linear_289_1039)"/>
<path d="M2081.56 1595.56L2072.47 1087.67C2071 1007.16 2048.13 927.959 2002.37 861.815C1981.54 831.603 1954.41 801.391 1919.36 774.699C1918.92 774.259 1918.33 773.819 1917.74 773.379C1855.41 726.447 1778.27 703.568 1700.24 705.035L1184.28 714.275L1184.57 714.568H1183.99V1230.52C1183.99 1308.54 1208.33 1385.25 1256.29 1446.7C1256.73 1447.29 1257.17 1447.87 1257.61 1448.46C1285.04 1482.92 1315.69 1509.47 1346.2 1529.86C1413.08 1574.44 1492.86 1595.85 1573.23 1595.85H2081.56V1595.56Z" fill="url(#paint2_linear_289_1039)"/>
<path d="M2229.11 1440.98L2238.2 933.091C2239.67 852.574 2262.55 773.377 2308.3 707.233C2329.13 677.021 2356.26 646.809 2391.32 620.117C2391.76 619.677 2392.34 619.237 2392.93 618.797C2455.26 571.865 2532.41 548.986 2610.43 550.453L3126.39 559.693L3126.1 559.986H3126.68V1075.94C3126.68 1153.96 3102.34 1230.67 3054.38 1292.12C3053.94 1292.7 3053.5 1293.29 3053.06 1293.88C3025.63 1328.34 2994.98 1354.89 2964.47 1375.27C2897.6 1419.86 2817.81 1441.27 2737.44 1441.27H2229.4L2229.11 1441.42V1441.27V1440.98Z" fill="url(#paint3_linear_289_1039)"/>
<path d="M846.371 2465.69L839.184 2061.64C838.011 1997.55 819.825 1934.63 783.453 1881.98C766.88 1857.93 745.32 1833.88 717.454 1812.61C717.161 1812.32 716.574 1811.88 716.134 1811.59C666.562 1774.19 605.111 1756 543.072 1757.17L132.563 1764.51L132.857 1764.8H132.417V2175.16C132.417 2237.2 151.776 2298.21 189.909 2347.19C190.202 2347.63 190.642 2348.07 190.935 2348.66C212.788 2376.08 237.134 2397.2 261.333 2413.34C314.572 2448.83 377.93 2465.84 441.875 2465.84H846.224V2465.55L846.371 2465.69Z" fill="url(#paint4_linear_289_1039)"/>
<path d="M1062.4 1640.58L1057.13 1344.47C1056.25 1297.54 1042.9 1251.34 1016.21 1212.77C1004.03 1195.17 988.194 1177.57 967.807 1162.03C967.514 1161.73 967.221 1161.59 966.928 1161.29C930.555 1133.87 885.53 1120.52 840.064 1121.4L539.112 1126.83H539.259H538.819V1427.77C538.819 1473.24 553.045 1517.97 580.911 1553.9C581.205 1554.2 581.351 1554.64 581.645 1554.93C597.631 1575.02 615.524 1590.57 633.27 1602.45C672.282 1628.41 718.774 1640.87 765.706 1640.87H1062.11L1062.4 1640.58Z" fill="url(#paint5_linear_289_1039)"/>
<path d="M1047.74 975.181L1042.46 679.073C1041.58 632.141 1028.23 585.943 1001.54 547.371C989.367 529.772 973.527 512.173 953.141 496.627C952.848 496.334 952.555 496.187 952.261 495.894C915.889 468.468 870.863 455.122 825.398 456.002L524.446 461.428H524.593H524.153V762.376C524.153 807.841 538.379 852.573 566.245 888.505C566.538 888.798 566.685 889.238 566.978 889.531C582.965 909.624 600.857 925.17 618.604 937.049C657.616 963.008 704.108 975.474 751.04 975.474H1047.45L1047.74 975.181Z" fill="url(#paint6_linear_289_1039)"/>
<path d="M1548.3 3284.06L1543.02 2987.95C1542.14 2941.02 1528.79 2894.82 1502.1 2856.25C1489.93 2838.65 1474.09 2821.05 1453.7 2805.51C1453.41 2805.21 1453.11 2805.07 1452.82 2804.77C1416.45 2777.35 1371.42 2764 1325.96 2764.88L1025.01 2770.31H1025.15H1024.71V3071.26C1024.71 3116.72 1038.94 3161.45 1066.8 3197.39C1067.1 3197.68 1067.24 3198.12 1067.54 3198.41C1083.52 3218.5 1101.42 3234.05 1119.16 3245.93C1158.18 3271.89 1204.67 3284.36 1251.6 3284.36H1548.01L1548.3 3284.06Z" fill="url(#paint7_linear_289_1039)"/>
<path d="M1937.98 3190.35L1943.26 2894.24C1944.14 2847.31 1957.49 2801.11 1984.18 2762.54C1996.35 2744.94 2012.19 2727.34 2032.58 2711.79C2032.87 2711.5 2033.17 2711.35 2033.46 2711.06C2069.83 2683.64 2114.86 2670.29 2160.32 2671.17L2461.27 2676.6H2461.13H2461.57V2977.54C2461.57 3023.01 2447.34 3067.74 2419.48 3103.67C2419.18 3103.97 2419.04 3104.41 2418.74 3104.7C2402.76 3124.79 2384.86 3140.34 2367.12 3152.22C2328.1 3178.18 2281.61 3190.64 2234.68 3190.64H1938.42H1938.27L1937.98 3190.35Z" fill="url(#paint8_linear_289_1039)"/>
<path d="M1589.8 543.557L1594.2 296.434C1594.94 257.275 1606.08 218.703 1628.38 186.585C1638.5 171.919 1651.7 157.253 1668.71 144.2C1668.86 144.053 1669.15 143.76 1669.44 143.613C1699.8 120.734 1737.35 109.588 1775.33 110.321L2026.42 114.868H2026.27H2026.57V365.951C2026.57 403.936 2014.69 441.188 1991.37 471.107C1991.22 471.4 1990.93 471.693 1990.78 471.987C1977.43 488.706 1962.47 501.612 1947.66 511.585C1915.1 533.291 1876.24 543.704 1837.22 543.704H1589.95L1589.8 543.557Z" fill="url(#paint9_linear_289_1039)"/>
<path d="M2623.63 2962.44L2628.03 2720.15C2628.76 2681.73 2639.62 2643.89 2661.47 2612.36C2671.44 2597.98 2684.35 2583.46 2701.07 2570.85C2701.21 2570.71 2701.51 2570.41 2701.8 2570.27C2731.57 2547.83 2768.39 2536.97 2805.64 2537.71L3051.88 2542.11H3051.74H3052.03V2788.35C3052.03 2825.6 3040.45 2862.12 3017.57 2891.45C3017.42 2891.75 3017.13 2892.04 3016.98 2892.33C3003.93 2908.76 2989.26 2921.37 2974.74 2931.2C2942.77 2952.46 2904.78 2962.73 2866.36 2962.73H2623.92L2623.63 2962.44Z" fill="#0640F7"/>
<path d="M3037.22 1791.2L3041.62 1548.92C3042.35 1510.49 3053.21 1472.65 3075.06 1441.12C3085.03 1426.75 3097.94 1412.23 3114.66 1399.62C3114.8 1399.47 3115.1 1399.18 3115.39 1399.03C3145.16 1376.59 3181.97 1365.74 3219.23 1366.47L3465.47 1370.87H3465.33H3465.62V1617.11C3465.62 1654.37 3454.03 1690.88 3431.15 1720.22C3431.01 1720.51 3430.71 1720.8 3430.57 1721.1C3417.52 1737.52 3402.85 1750.14 3388.33 1759.96C3356.36 1781.23 3318.37 1791.49 3279.95 1791.49H3037.51L3037.22 1791.2Z" fill="#0640F7"/>
<path d="M430.729 1578.69L426.329 1336.41C425.596 1297.98 414.743 1260.14 392.89 1228.61C382.917 1214.24 370.01 1199.72 353.291 1187.11C353.144 1186.96 352.851 1186.67 352.558 1186.52C322.785 1164.08 285.973 1153.23 248.72 1153.96L2.47363 1158.22V1404.46C2.47363 1441.71 14.06 1478.38 36.9394 1507.71C37.086 1508 37.3794 1508.3 37.526 1508.59C50.579 1525.01 65.2453 1537.63 79.7649 1547.45C111.737 1568.72 149.723 1578.99 188.149 1578.99H430.729V1578.69Z" fill="#0640F7"/>
<path d="M2212.09 424.911L2216.49 182.627C2217.23 144.202 2228.08 106.363 2249.93 74.8314C2259.91 60.4586 2272.81 45.9392 2289.53 33.3264C2289.68 33.1797 2289.97 32.8864 2290.27 32.7397C2320.04 10.3006 2356.7 -0.698922 2393.96 0.0343826L2640.2 4.43421H2640.06H2640.35V250.678C2640.35 287.93 2628.76 324.448 2605.88 353.78C2605.74 354.074 2605.44 354.367 2605.3 354.66C2592.24 371.086 2577.58 383.699 2563.06 393.525C2531.09 414.791 2493.1 425.057 2454.67 425.057H2212.24L2212.09 424.911Z" fill="url(#paint10_linear_289_1039)"/>
<path d="M1641.43 3167.61V5119.96H748.254V5066.72H573.872V5241.1H748.254V5182.15H1641.43H1656.1H1703.61V3167.61H1641.43Z" fill="url(#paint11_linear_289_1039)"/>
<path d="M2838.64 5066.72V5119.96H1892.52V3167.61H1830.33V5182.15H1877.85H1892.52H2838.64V5241.1H3013.02V5066.72H2838.64Z" fill="url(#paint12_linear_289_1039)"/>
<path d="M1488.61 3811.31L1300.59 3561.4V3413.86H1262.75V3576.95H1263.19L1262.75 3577.24L1451.94 3828.91V4963.04H925.129V4931.65H822.318V5034.61H925.129V4999.7H1451.94H1460.59H1488.61V3811.31Z" fill="url(#paint13_linear_289_1039)"/>
<path d="M2608.82 4931.65V4963.04H2082V3828.91L2271.35 3577.24L2270.91 3576.95H2271.2V3413.86H2233.36V3561.4L2045.34 3811.31V4999.7H2073.35H2082H2608.82V5034.61H2711.77V4931.65H2608.82Z" fill="#0640F7"/>
</g>
<defs>
<linearGradient id="paint0_linear_289_1039" x1="983.794" y1="2202.73" x2="1881.52" y2="2202.73" gradientUnits="userSpaceOnUse">
<stop stop-color="#FB7B2E"/>
<stop offset="0.99" stop-color="#BF0060"/>
</linearGradient>
<linearGradient id="paint1_linear_289_1039" x1="2026.85" y1="2066.48" x2="2924.58" y2="2066.48" gradientUnits="userSpaceOnUse">
<stop stop-color="#BF0060"/>
<stop offset="1" stop-color="#0640F7"/>
</linearGradient>
<linearGradient id="paint2_linear_289_1039" x1="1183.99" y1="1150.59" x2="2081.71" y2="1150.59" gradientUnits="userSpaceOnUse">
<stop stop-color="#FB7B2E"/>
<stop offset="0.99" stop-color="#BF0060"/>
</linearGradient>
<linearGradient id="paint3_linear_289_1039" x1="2228.96" y1="996.009" x2="3126.68" y2="996.009" gradientUnits="userSpaceOnUse">
<stop stop-color="#BF0060"/>
<stop offset="1" stop-color="#0640F7"/>
</linearGradient>
<linearGradient id="paint4_linear_289_1039" x1="132.417" y1="2111.65" x2="846.518" y2="2111.65" gradientUnits="userSpaceOnUse">
<stop stop-color="#5763E8"/>
<stop offset="0.05" stop-color="#0640F7"/>
<stop offset="0.99" stop-color="#FF6321"/>
</linearGradient>
<linearGradient id="paint5_linear_289_1039" x1="538.966" y1="1380.99" x2="1062.55" y2="1380.99" gradientUnits="userSpaceOnUse">
<stop stop-color="#5763E8"/>
<stop offset="0.05" stop-color="#0640F7"/>
<stop offset="0.99" stop-color="#FF6321"/>
</linearGradient>
<linearGradient id="paint6_linear_289_1039" x1="524.299" y1="715.591" x2="1047.89" y2="715.591" gradientUnits="userSpaceOnUse">
<stop stop-color="#5763E8"/>
<stop offset="0.05" stop-color="#0640F7"/>
<stop offset="0.99" stop-color="#FF6321"/>
</linearGradient>
<linearGradient id="paint7_linear_289_1039" x1="1024.86" y1="3024.62" x2="1548.45" y2="3024.62" gradientUnits="userSpaceOnUse">
<stop stop-color="#FB7B2E"/>
<stop offset="0.99" stop-color="#BF0060"/>
</linearGradient>
<linearGradient id="paint8_linear_289_1039" x1="1937.98" y1="2930.76" x2="2461.42" y2="2930.76" gradientUnits="userSpaceOnUse">
<stop stop-color="#BF0060"/>
<stop offset="1" stop-color="#0640F7"/>
</linearGradient>
<linearGradient id="paint9_linear_289_1039" x1="1589.66" y1="326.939" x2="2026.57" y2="326.939" gradientUnits="userSpaceOnUse">
<stop stop-color="#FB7B2E"/>
<stop offset="1" stop-color="#BF0060"/>
</linearGradient>
<linearGradient id="paint10_linear_289_1039" x1="2211.95" y1="212.546" x2="2640.35" y2="212.546" gradientUnits="userSpaceOnUse">
<stop stop-color="#BF0060"/>
<stop offset="1" stop-color="#0640F7"/>
</linearGradient>
<linearGradient id="paint11_linear_289_1039" x1="573.872" y1="4204.36" x2="1703.61" y2="4204.36" gradientUnits="userSpaceOnUse">
<stop stop-color="#FB7B2E"/>
<stop offset="0.99" stop-color="#BF0060"/>
</linearGradient>
<linearGradient id="paint12_linear_289_1039" x1="1830.33" y1="4204.36" x2="3013.02" y2="4204.36" gradientUnits="userSpaceOnUse">
<stop stop-color="#BF0060"/>
<stop offset="1" stop-color="#0640F7"/>
</linearGradient>
<linearGradient id="paint13_linear_289_1039" x1="822.318" y1="4224.16" x2="1488.61" y2="4224.16" gradientUnits="userSpaceOnUse">
<stop stop-color="#FF6321"/>
</linearGradient>
<clipPath id="clip0_289_1039">
<rect width="3463" height="5241" fill="white"/>
</clipPath>
</defs>
</svg>
